<svg xmlns="http://www.w3.org/2000/svg" xmlns:xlink="http://www.w3.org/1999/xlink" version="1.2" overflow="visible" preserveAspectRatio="none" viewBox="4 4 16 16"><g><path xmlns:default="http://www.w3.org/2000/svg" id="spotify" d="M15.74,15.27c0.01,0.27-0.21,0.49-0.48,0.5c0,0-0.01,0-0.01,0c-0.12-0.01-0.24-0.04-0.34-0.11  c-1.25-0.73-2.68-1.1-4.13-1.07c-0.85,0.01-1.7,0.1-2.53,0.28l-0.39,0.08c-0.14,0.01-0.27-0.05-0.37-0.15  c-0.09-0.1-0.14-0.23-0.14-0.36c-0.02-0.27,0.17-0.51,0.44-0.54c0.98-0.23,1.99-0.34,3-0.35c1.63-0.03,3.24,0.38,4.65,1.2  c0.19,0.11,0.31,0.31,0.31,0.53l0,0L15.74,15.27z M16.74,13.03c0,0.34-0.28,0.62-0.62,0.62l0,0c-0.14-0.01-0.28-0.06-0.4-0.14  c-1.54-0.88-3.3-1.33-5.08-1.29c-0.89,0-1.78,0.12-2.64,0.35c-0.13,0.04-0.26,0.06-0.39,0.08C7.27,12.64,6.99,12.36,7,12.02  c0-0.01,0-0.01,0-0.02c-0.03-0.32,0.19-0.61,0.5-0.67c1.02-0.29,2.08-0.44,3.15-0.44c2-0.04,3.98,0.47,5.71,1.47  c0.23,0.13,0.37,0.38,0.36,0.64l0,0L16.74,13.03z M17.86,10.45c0.01,0.2-0.07,0.4-0.22,0.54c-0.14,0.14-0.33,0.21-0.53,0.21  c-0.15,0-0.29-0.04-0.42-0.12c-0.82-0.47-1.71-0.81-2.64-1c-1.06-0.24-2.14-0.35-3.22-0.35c-1.08-0.01-2.16,0.12-3.2,0.39  c-0.14,0.04-0.28,0.07-0.42,0.08c-0.2,0.01-0.39-0.06-0.53-0.2C6.54,9.86,6.46,9.66,6.47,9.46C6.46,9.28,6.52,9.1,6.63,8.96  C6.72,8.83,6.85,8.73,7,8.67c1.23-0.34,2.51-0.51,3.79-0.49c1.2,0,2.4,0.13,3.57,0.39c1.07,0.23,2.1,0.61,3.05,1.15  c0.27,0.14,0.43,0.43,0.42,0.73l0,0H17.86z M18.92,8c-0.7-1.21-1.71-2.22-2.92-2.92C14.79,4.37,13.41,3.99,12,4  c-1.41-0.01-2.79,0.37-4,1.08C6.79,5.78,5.78,6.79,5.08,8C4.37,9.21,3.99,10.59,4,12c-0.01,1.41,0.36,2.79,1.07,4  c0.7,1.21,1.71,2.22,2.93,2.92c1.21,0.71,2.59,1.09,4,1.08c1.41,0.01,2.79-0.36,4-1.07c1.21-0.7,2.22-1.71,2.92-2.93  c0.71-1.21,1.09-2.59,1.08-4C20.01,10.59,19.63,9.21,18.92,8z" style="fill: rgb(255, 246, 232);" vector-effect="non-scaling-stroke"/></g></svg>